<?xml version="1.0" standalone="no"?>
<!DOCTYPE svg PUBLIC "-//W3C//DTD SVG 20010904//EN"
 "http://www.w3.org/TR/2001/REC-SVG-20010904/DTD/svg10.dtd">
<svg version="1.0" xmlns="http://www.w3.org/2000/svg"
 width="200.000000pt" height="190.000000pt" viewBox="0 0 321.000000 318.000000"
 preserveAspectRatio="xMidYMid meet">

<g transform="translate(0.000000,318.000000) scale(0.100000,-0.100000)"
fill="black" stroke="none">
<path d="M150 1590 l0 -1460 1464 0 1465 0 0 1460 -1 1460 -1464 0 -1464 0 0
-1460z m2888 13 c1 -904 -1 -1413 -8 -1413 -5 0 -47 26 -92 58 -46 32 -153
105 -238 164 -85 58 -174 118 -197 134 -27 19 -188 212 -457 549 -229 286
-420 521 -424 523 -5 1 -129 -162 -276 -363 -147 -201 -282 -376 -299 -389
-29 -21 -95 -62 -427 -262 -95 -58 -120 -80 -265 -234 -87 -93 -163 -170 -167
-170 -10 0 -11 2804 -1 2813 3 4 646 6 1427 5 l1421 -3 3 -1412z m-1122 -405
c159 -199 307 -385 329 -413 22 -27 48 -63 58 -78 l18 -28 -22 12 c-13 6 -101
65 -197 130 l-174 119 -103 -27 -104 -27 -78 84 c-43 47 -94 102 -114 124
l-36 39 -152 -91 c-84 -51 -154 -92 -157 -92 -14 0 13 41 168 251 94 129 192
262 216 297 25 34 49 62 52 62 4 0 137 -163 296 -362z m-333 -217 c48 -52 87
-98 87 -103 0 -4 -24 -14 -52 -22 -180 -51 -611 -166 -619 -166 -16 0 -6 20
47 94 44 61 61 74 193 154 81 47 164 99 186 114 22 15 47 27 55 25 9 -1 55
-44 103 -96z m420 -291 c53 -109 97 -201 97 -204 0 -3 -24 21 -52 52 -29 31
-55 59 -58 62 -50 50 -232 251 -229 254 7 5 113 34 130 35 10 1 45 -61 112
-199z m246 -13 c146 -101 370 -255 498 -342 127 -87 230 -163 227 -167 -3 -4
-135 -8 -294 -8 l-288 0 -87 93 c-85 90 -90 98 -211 345 -68 138 -124 254
-124 257 0 12 26 -5 279 -178z m-227 -172 c168 -181 303 -333 301 -337 -6 -11
-1711 -10 -1717 0 -3 5 70 111 162 237 135 184 173 231 197 238 17 4 183 50
370 102 187 52 349 93 361 92 13 -1 133 -123 326 -332z m-1062 226 c-39 -62
-43 -66 -115 -87 -134 -39 -132 -25 8 59 90 53 129 76 134 77 2 0 -11 -22 -27
-49z m-102 -134 c-2 -7 -73 -108 -158 -225 l-155 -212 -156 0 c-86 0 -159 3
-162 7 -7 6 35 53 231 255 98 102 107 109 170 127 37 11 96 28 132 39 79 24
103 26 98 9z"/>
</g>
</svg>
